<?xml version="1.0" standalone="no"?>
<!DOCTYPE svg PUBLIC "-//W3C//DTD SVG 20010904//EN"
 "http://www.w3.org/TR/2001/REC-SVG-20010904/DTD/svg10.dtd">
<svg version="1.0" xmlns="http://www.w3.org/2000/svg"
 width="600.000000pt" height="600.000000pt" viewBox="0 0 600.000000 600.000000"
 preserveAspectRatio="xMidYMid meet">
<metadata>
Created by potrace 1.14, written by Peter Selinger 2001-2017
</metadata>
<g transform="translate(0.000000,600.000000) scale(0.100000,-0.100000)"
fill="#000000" stroke="none">
<path d="M1867 5964 c-1 -1 -26 -5 -56 -9 -30 -4 -63 -9 -75 -11 -12 -2 -34
-7 -51 -9 -16 -3 -44 -10 -61 -16 -17 -5 -40 -11 -50 -14 -27 -5 -198 -76
-204 -84 -3 -3 -18 -12 -35 -20 -72 -31 -208 -133 -300 -226 -90 -90 -195
-222 -195 -245 0 -4 -4 -10 -8 -12 -5 -1 -28 -43 -52 -93 -55 -116 -52 -109
-106 -260 -48 -134 -104 -292 -179 -500 -24 -66 -84 -235 -134 -375 -51 -140
-96 -264 -101 -275 -30 -66 -100 -324 -115 -425 -4 -24 -8 -47 -10 -51 -17
-26 -26 -470 -12 -584 16 -134 19 -152 49 -275 11 -47 21 -92 23 -100 5 -22
54 -172 65 -195 5 -11 19 -49 31 -85 12 -36 35 -101 51 -145 16 -44 34 -96 40
-115 5 -19 13 -39 16 -45 4 -5 7 -12 7 -15 0 -3 6 -18 12 -35 13 -32 121 -334
210 -585 52 -147 73 -203 96 -260 5 -14 13 -34 17 -45 20 -53 45 -103 62 -128
11 -15 17 -27 14 -27 -6 0 40 -69 105 -155 112 -150 292 -296 472 -382 84 -40
220 -89 271 -97 21 -4 41 -8 45 -10 7 -5 90 -17 151 -22 62 -5 1535 -5 1585 1
22 2 55 7 72 10 18 3 35 6 38 6 2 0 23 6 45 14 22 8 43 14 46 14 11 -2 121 46
146 63 14 10 29 18 33 18 9 0 99 62 103 72 2 4 9 8 15 8 15 0 187 180 187 196
0 7 4 14 9 16 28 10 118 203 146 313 28 111 38 271 22 370 -16 106 -20 121
-29 132 -6 7 -8 13 -5 13 4 0 0 19 -8 41 -8 23 -15 44 -15 48 0 4 30 7 68 7
77 1 221 12 231 19 4 2 29 7 56 11 27 3 66 12 87 20 21 7 39 13 41 13 8 -3 94
25 105 33 6 6 12 8 12 5 0 -14 281 122 307 149 8 8 18 14 23 14 5 0 15 6 22
13 7 6 32 25 56 41 23 16 42 32 42 37 0 4 8 10 18 13 17 6 168 151 210 203 12
15 32 39 43 53 12 14 37 50 57 80 20 30 39 57 42 60 3 3 18 30 34 60 16 30 33
62 38 70 22 41 74 167 83 200 1 3 4 12 8 20 5 12 23 74 32 110 9 37 16 70 20
95 2 17 6 41 9 55 18 81 24 282 12 399 -11 109 -18 143 -61 321 -9 36 -48 137
-78 198 -17 37 -32 69 -32 72 -1 17 -146 240 -156 240 -4 0 -10 9 -14 19 -7
24 -183 205 -250 257 -27 21 -52 42 -55 45 -24 28 -235 149 -324 185 -34 14
-70 29 -81 34 -32 14 -148 48 -185 55 -18 3 -36 8 -39 10 -4 2 -25 6 -47 9
-22 4 -51 9 -64 12 -14 2 -79 7 -145 10 -66 3 -121 7 -123 9 -2 1 6 31 17 66
35 110 45 180 44 310 0 64 -7 136 -18 185 -11 43 -19 81 -20 84 -1 7 -24 69
-38 100 -14 34 -14 32 -22 58 -4 12 -11 22 -16 22 -5 0 -9 5 -9 10 0 21 -98
156 -151 209 -30 29 -85 77 -124 106 -70 53 -225 135 -255 135 -9 0 -20 4 -26
8 -5 5 -34 14 -64 20 -30 6 -68 14 -85 18 -27 6 -1612 14 -1618 8z"/>
</g>
</svg>
