<svg width="25" height="25" viewBox="0 0 25 25" fill="none" xmlns="http://www.w3.org/2000/svg">
<g clip-path="url(#clip0_200_970)">
<path d="M21.7784 7.1552L13.845 2.34824C13.0185 1.84747 11.9823 1.84746 11.1558 2.34821L3.22215 7.15518C1.92883 7.9388 1.57697 9.65799 2.45835 10.8867H22.5423C23.4236 9.65799 23.0717 7.93882 21.7784 7.1552Z" fill="#23B0FF"/>
<path d="M14.6087 21.9466L22.5421 10.8865L21.464 9.06641H12.2559V20.7684L14.6087 21.9466Z" fill="#2094FF"/>
<path d="M10.2117 21.9466L2.27832 10.8865L3.35642 9.06641H12.5646V20.7684L10.2117 21.9466Z" fill="#6BCAFF"/>
<path fill-rule="evenodd" clip-rule="evenodd" d="M22.4504 6.04512C24.3904 7.22057 24.9182 9.79917 23.5961 11.6424L15.6626 22.7025C14.11 24.8673 10.8903 24.8673 9.33751 22.7025L1.40387 11.6424C0.0817374 9.79931 0.609559 7.22055 2.54958 6.0451L10.4832 1.23815C11.7229 0.48702 13.2773 0.48702 14.5171 1.23817L22.4504 6.04512ZM13.7975 10.4517H21.257L13.7975 20.851V10.4517ZM11.2029 10.4517H3.74298L11.2029 20.8513V10.4517ZM20.4336 7.85697L13.1724 3.45731C12.7591 3.20694 12.241 3.20694 11.8278 3.45731L4.56639 7.85697H20.4336Z" fill="black"/>
</g>
<defs>
<clipPath id="clip0_200_970">
<rect width="25" height="25" fill="white"/>
</clipPath>
</defs>
</svg>
